<?xml version="1.0" encoding="UTF-8"?>
<svg xmlns="http://www.w3.org/2000/svg" viewBox="0 0 340.49 463.15">
  <defs>
    <style>
      .cls-1 {
        fill: #b3bc78;
      }

      .cls-2 {
        fill: #58280d;
      }

      .cls-3 {
        opacity: .64;
      }

      .cls-3, .cls-4, .cls-5 {
        fill: #eb936d;
      }

      .cls-3, .cls-4, .cls-5, .cls-6, .cls-7, .cls-8 {
        mix-blend-mode: multiply;
      }

      .cls-4 {
        opacity: .67;
      }

      .cls-5 {
        opacity: .21;
      }

      .cls-9 {
        fill: #496eb5;
      }

      .cls-10 {
        isolation: isolate;
      }

      .cls-11 {
        fill: #f07d77;
      }

      .cls-12 {
        fill: #723b22;
      }

      .cls-13 {
        fill: #fff;
      }

      .cls-14 {
        fill: #4d3f35;
      }

      .cls-15 {
        fill: #9e7761;
      }

      .cls-6 {
        opacity: .55;
      }

      .cls-6, .cls-16 {
        fill: #efb291;
      }

      .cls-17 {
        fill: #48261d;
      }

      .cls-18 {
        fill: #d7513d;
      }

      .cls-19 {
        fill: #381100;
      }

      .cls-20 {
        fill: #1a1716;
      }

      .cls-21 {
        fill: #5a4e7a;
      }

      .cls-7 {
        fill: #b0d795;
      }

      .cls-22, .cls-8 {
        fill: #f7e3d3;
      }

      .cls-23 {
        fill: #3e3356;
      }

      .cls-24 {
        fill: #92422b;
      }
    </style>
  </defs>
  <g class="cls-10">
    <g id="Layer_1" data-name="Layer 1">
      <g>
        <g>
          <path class="cls-19" d="M286.7,382.75c2.99-1.79,5.88-3.77,8.49-6.07,2.04-1.8,3.92-3.87,5.03-6.38,1.26-2.85,1.24-5.91.45-8.88-.1-.36.35-.61.62-.36,4.58,4.31,2.77,10.54,1.69,15.97,1.09-.63,2-1.49,2.75-2.51,1.98-2.69,2.95-6.07,3.59-9.3.64-3.2.97-6.51.97-9.78-.02-9.42-5.22-17.77-9.83-25.61-4.19-7.12-8.29-14.07-9.31-22.43-.99-8.07.89-16.08,3.12-23.78,2.73-9.48,2.01-19.23-1.15-28.51-3.08-9.04-8.31-16.91-12.57-25.39-3.43-6.83-6.16-14.02-7.36-21.6-1.37-8.6-.61-17.07.34-25.67,1.7-15.46,2.9-31.5-.49-46.71-.7-1.34-1.52-2.62-2.47-3.8-7.93-9.83-23.5-8.03-34.85-7.18-7.79.58-15.5,1.45-23.19,2.75-8.05,1.36-16.05,3.02-24.06,4.58-8.09,1.58-16.23,2.89-24.34,4.4-8.15,1.51-16.29,3.14-24.43,4.68-8.14,1.54-16.3,3-24.51,4.17-4.16.59-8.34,1.2-12.54,1.52-4.05.31-8.12.14-12.17-.05-3.97-.19-7.95-.4-11.92-.24-.28.01-.56.1-.8.23.26.74.52,1.48.78,2.22,3.27,9.45,6.3,19.15,6.65,29.22.33,9.39-1.5,19.45-6.55,27.48-4.2,6.68-10.22,11.88-15.32,17.83-2.64,3.07-4.96,6.38-6.67,10.06-2.13,4.6-2.42,9.5-1.78,14.47.64,4.97,2,9.81,2.76,14.77.66,4.35.7,8.71-.18,13.03-1.83,8.99-6.8,17.09-11.72,24.7-4.75,7.35-9.74,14.53-13.57,22.43-3.05,6.29-5.46,12.99-6.54,19.92-1.02,6.56-.79,13.54,2.05,19.65,2.83,6.1,7.97,10.43,13.91,13.28-4.37-4.24-7.57-11.04-4.44-16.67.14-.26.63-.24.68.09,1.23,8.12,6.87,14.06,13.75,18.07.35.2.69.4,1.04.59,6.35.59,12.66,1.6,18.92,2.74,21.01,3.84,42.12,6.74,63.56,6.64,10.99-.05,22-.84,32.85-2.54,11.11-1.75,22.18-3.66,33.35-5.03,11.12-1.36,22.23-2.27,33.45-1.81,10.94.44,21.92,1.57,32.77,2.96,6.39.82,12.83,1.92,19.23,1.84Z"/>
          <g>
            <path class="cls-17" d="M93.06,192.23c-.37,3.6-.73,7.2-1.36,10.76-.6,3.42-1.36,7.08-3.04,10.15-1.45,2.66-3.57,4.84-5.68,6.98-2.18,2.2-4.3,4.46-6.36,6.78-3.95,4.46-7.75,9.21-10.04,14.76-2.4,5.82-2.48,11.98-.75,18,1.83,6.39,5.15,12.3,6.44,18.85,1.1,5.6.44,11.26-2.89,15.99-3,4.25-7.36,7.37-11.3,10.68-4.15,3.49-7.72,7.62-10.6,12.22-5.68,9.08-9.57,21.15-4.91,31.47.54,1.19,1.19,2.31,1.94,3.39.1.14.39-.06.29-.21-3.07-4.78-4.25-10.31-3.69-15.94.58-5.78,2.73-11.33,5.66-16.3,2.82-4.77,6.38-9.21,10.61-12.81,4.02-3.42,8.53-6.33,12.02-10.34,3.5-4.02,5.33-8.86,5.17-14.21-.2-6.68-3.03-12.74-5.33-18.88-1.14-3.06-2.16-6.21-2.57-9.46-.39-3.06-.17-6.19.64-9.16,1.56-5.7,5.06-10.62,8.84-15.07,1.99-2.35,4.07-4.64,6.18-6.89,2.04-2.18,4.21-4.24,5.97-6.66,4-5.48,4.54-12.51,4.94-19.07.1-1.72.22-3.43.35-5.14.03-.33-.51-.15-.54.11Z"/>
            <path class="cls-17" d="M103.78,219.6c-3.86,5.18-7.11,10.8-9.52,16.81-2.32,5.78-4.24,12.11-4.4,18.38-.31,12.29,6.53,23.18,8.02,35.18.29,2.37.38,4.78.07,7.15-.26,1.93-.75,3.81-1.37,5.65-1.37,4.08-3.31,7.94-5.34,11.73-4.19,7.83-9.13,15.54-11.57,24.16-1.08,3.82-1.61,7.85-.86,11.78.33,1.74.92,3.4,1.7,4.96-.38-.63-.74-1.27-1.08-1.92-2.12-4.06-3.4-8.53-4.02-13.05-1.28-9.43.24-19.18,3.68-28.01,1.87-4.81,4.34-9.39,7.22-13.67.17-.26-.21-.35-.37-.17-6.26,7.28-9.97,16.72-11.64,26.1-1.67,9.38-1.14,19.35,2.88,28.09,2.2,4.78,5.57,9.41,10.07,12.25.28.18.94-.27.65-.56-.81-.82-1.61-1.63-2.39-2.47.66.61,1.36,1.18,2.1,1.71.47.33,1.3-.43.83-.88-3.24-3.09-6.16-6.42-7.46-10.8-1.09-3.66-.97-7.59-.14-11.29,1.92-8.53,6.75-16.18,10.87-23.78,2.08-3.83,4.12-7.71,5.71-11.78,1.4-3.57,2.47-7.37,2.48-11.23.03-12.07-6.58-22.81-8.2-34.59-.85-6.18.26-12.31,2.08-18.22,1.91-6.19,4.64-12.07,7.9-17.66.75-1.29,1.54-2.55,2.39-3.77.14-.21-.18-.23-.29-.09Z"/>
            <path class="cls-17" d="M134.95,271.29c-1.13-5.67-3.41-11.03-5.36-16.45-.91-2.52-1.79-5.06-2.38-7.68-.47-2.09-.76-4.23-.91-6.37-.33-4.82-.08-9.71.82-14.46.87-4.6,2.3-9.19,4.89-13.13.6-.91,1.24-1.78,1.96-2.6.24-.27-.13-.45-.34-.23-3.25,3.29-5.32,7.59-6.72,11.95-1.53,4.77-2.26,9.79-2.37,14.79-.11,4.69.43,9.4,1.74,13.91,1.63,5.6,4.04,10.94,5.69,16.54,1.51,5.1,2.56,10.76.89,15.95-1.36,4.21-4.31,7.7-7.35,10.82-3.28,3.38-6.85,6.47-9.96,10-2.9,3.29-5.43,7.03-6.35,11.38-.89,4.22-.52,8.71.84,12.79,1.32,3.97,3.72,7.88,7.32,10.15.87.55,1.78.97,2.76,1.28.27.09.78-.4.44-.57-7.8-3.97-11.31-13.19-10.34-21.6,1.06-9.2,8.88-15.2,15.1-21.21,3.18-3.07,6.33-6.37,8.28-10.39,2.27-4.68,2.34-9.86,1.33-14.89Z"/>
            <path class="cls-17" d="M218.54,285.78c-.46-4.41-2.07-8.65-4.16-12.54-4.19-7.8-10.38-14.36-13.96-22.51-2.08-4.72-2.92-9.82-2.81-14.96.11-5.25,1.07-10.39,2.08-15.53.26-1.33.55-2.65.84-3.98.06-.29-.35-.22-.41,0-2.79,10.11-5.5,20.78-2.66,31.21,2.4,8.83,8.62,15.79,13.35,23.42,4.37,7.05,7.79,15.72,5.03,24-2.77,8.3-10.39,13.32-14.97,20.46-2.17,3.39-3.76,7.08-4.12,11.12-.37,4.21.77,8.35,2.74,12.05.6,1.13,1.27,2.21,2.01,3.25.19.27.74-.11.56-.39-2.55-3.81-4.59-8.04-4.79-12.7-.18-4.1,1.15-8.04,3.22-11.53,2.4-4.05,5.74-7.31,9.02-10.63,2.83-2.87,5.51-5.98,7.24-9.65,1.65-3.49,2.21-7.25,1.81-11.08Z"/>
            <path class="cls-17" d="M267.4,354.97c-1.8-5.14-5.96-8.33-9.98-11.71-2.22-1.86-4.35-3.86-5.87-6.35-1.43-2.35-2.19-5.03-2.22-7.77-.06-5.57,2.34-10.84,4.33-15.92,2.06-5.27,3.86-10.57,3.75-16.3-.1-5.42-1.64-10.65-3.97-15.51-4.83-10.08-12.68-18.25-20.18-26.37-3.74-4.05-7.51-8.42-8.77-13.93-.72-3.12-.55-6.42-.14-9.57.44-3.39,1.28-6.72,2.2-10.01.45-1.59.92-3.18,1.38-4.77.06-.2-.25-.15-.3,0-2.16,6.38-4.46,12.89-4.78,19.69-.27,5.71,1.9,10.78,5.32,15.26,3.34,4.38,7.37,8.22,10.97,12.38,3.68,4.24,7.19,8.68,10.09,13.5,2.82,4.69,5.07,9.78,5.98,15.2.95,5.63.12,11.09-1.78,16.43-1.88,5.28-4.38,10.39-5.41,15.94-.48,2.58-.56,5.25.02,7.83.63,2.79,2.07,5.34,3.95,7.48,3.49,3.95,8.31,6.52,11.53,10.72,1.89,2.46,2.99,5.39,3.37,8.46.41,3.34-.15,6.67-.88,9.92-.36,1.6-.75,3.2-1.15,4.79-.18.7.84.52,1.01.02,2.07-6.21,3.77-12.95,1.52-19.37Z"/>
            <path class="cls-17" d="M287.8,329.8c-3.86-5.81-11.31-7.09-16-11.95-3.64-3.77-6.07-8.93-5.89-14.22.16-4.75,2.15-9.25,4.37-13.38,4.54-8.43,11.15-17.13,10.17-27.24-.6-6.21-4.11-11.94-7.88-16.74-4.07-5.18-8.86-9.76-12.7-15.14-1.85-2.6-3.45-5.36-4.58-8.35-1.14-3.05-1.85-6.25-2.28-9.48-.91-6.83-.68-13.96.78-20.71.32-1.45.71-2.88,1.19-4.29.1-.29-.35-.21-.43,0-2.48,6.16-3.39,12.98-3.28,19.59.1,6.47,1.06,13.21,4.01,19.04,5.98,11.81,18.28,19.43,22.47,32.29,1.56,4.79,1.22,9.63-.45,14.34-1.68,4.72-4.27,9.03-6.69,13.39-2.31,4.16-4.65,8.47-5.65,13.17-1.03,4.83-.31,9.65,2.16,13.94,1.58,2.75,3.66,5.21,6.25,7.05,2.7,1.91,5.75,3.25,8.5,5.09,2.85,1.9,5.02,4.36,6.26,7.58,1.23,3.19,1.52,6.6,1.12,9.97-.18,1.55-.54,3.1-1.09,4.56-.17.45.53.39.69.1,3.12-5.58,2.48-13.33-1.03-18.61Z"/>
          </g>
        </g>
        <path class="cls-9" d="M268.34,418.5c-.37,0-.72.66-.23.66.37,0,.72-.66.23-.66Z"/>
        <g>
          <path class="cls-16" d="M248.2,340.37s-31.09-15.31-42.69-25.52c-11.6-10.21-8.35-66.35-8.35-66.35h-53.36s3.25,56.15-8.35,66.35c-11.6,10.21-42.69,25.52-42.69,25.52,0,0,25.35,42,49.23,64.16,0,0,6.18,9.59,28.49,9.15,22.31.44,28.49-9.15,28.49-9.15,23.88-22.17,49.23-64.16,49.23-64.16Z"/>
          <path class="cls-6" d="M205.51,314.85c-1.3-1.14-2.4-2.86-3.35-5-.48.65-.96,1.31-1.44,1.96-5.64,7.54-32.06,45.75-32.22,45.59-2.99-3.01-5.35-6.58-7.59-10.16-2.01-3.21-4.01-6.4-6.13-9.54-2.38-3.53-4.82-7.02-7.25-10.53-3.42-4.94-6.8-9.93-9.88-15.09-.67,1.12-1.4,2.06-2.21,2.77-11.6,10.21-42.69,25.52-42.69,25.52,0,0,25.35,42,49.23,64.16,0,0,6.18,9.59,28.49,9.15,22.31.44,28.49-9.15,28.49-9.15,23.88-22.17,49.23-64.16,49.23-64.16,0,0-31.09-15.31-42.69-25.52Z"/>
          <path class="cls-6" d="M151.94,269.05c2.69,1.36,5.54,2.55,8.49,3.21,2.69.61,5.44.9,8.19.92,5.68.05,11.33-1.02,16.73-2.76,3.92-1.27,7.73-2.89,11.39-4.78,0-9.83.42-17.14.42-17.14h-53.36s.39,6.72.42,15.94c2.48,1.7,5.04,3.26,7.72,4.61Z"/>
          <path class="cls-22" d="M120.6,314.39s9.16-6.92,11.31-4.85c2.15,2.07,56.44,88.38,56.44,88.38l-31.09,36.19s-35.27-102.08-36.66-119.72Z"/>
          <path class="cls-8" d="M166.6,363.45c-2.73,3.15-5.13,6.58-7.42,10.06-2.53,3.85-4.92,7.78-7.47,11.62-2.43,3.66-4.85,7.33-7.26,11.01,6.99,21.15,12.8,37.96,12.8,37.96l31.09-36.19s-10.09-16.04-21.75-34.46Z"/>
          <path class="cls-22" d="M215.26,314.39s-9.16-6.92-11.31-4.85c-2.15,2.07-56.44,88.38-56.44,88.38l31.09,36.19s35.27-102.08,36.66-119.72Z"/>
          <path class="cls-8" d="M196.2,343.56c-5.96,11.24-11.93,22.47-17.98,33.66-6.04,11.16-12.17,22.27-18.44,33.3-.19.34-.38.68-.57,1.01l19.39,22.58s35.27-102.08,36.66-119.72c0,0-1.08-.81-2.58-1.8-5.52,10.31-11,20.64-16.48,30.97Z"/>
          <path class="cls-1" d="M203.25,456.2c-21.04-31.31-80.1-149-80.1-149-2.78.93-8.35,6.5-8.35,6.5,1.67,60.11,25.87,129.24,30.71,142.51h57.74Z"/>
          <path class="cls-7" d="M149.96,443.78c-4.1-11.77-7.09-23.89-9.93-36.01-2.95-12.61-5.65-25.27-8.65-37.86-2.75-11.56-6.12-22.98-8.6-34.6-1.81-8.49-3.19-17.22-3.13-25.93-2.44,1.91-4.85,4.32-4.85,4.32,1.67,60.11,25.87,129.24,30.71,142.51h9.16c-1.69-4.1-3.26-8.24-4.71-12.42Z"/>
          <path class="cls-7" d="M169.27,396.43c-2.53,3.34-5.04,6.69-7.52,10.07-6.57,8.98-12.93,18.13-18.9,27.53-1.08,1.69-2.13,3.4-3.18,5.1,2.63,8.09,4.75,14.04,5.85,17.07h57.74c-7.77-11.57-20.73-34.92-33.99-59.78Z"/>
          <path class="cls-21" d="M127.75,456.2l-40.33-121.63-6.03,2.98s-33.41,18.36-43.16,32.75c-8.73,12.88-28.99,73.4-33.13,85.9h122.64Z"/>
          <path class="cls-23" d="M82.57,364.07c1.45,10.26,3.43,20.44,5.79,30.53,2.3,9.84,5.25,19.5,8.76,28.98,3.47,9.38,7.47,18.56,11.8,27.58.81,1.69,1.64,3.37,2.47,5.05h16.36l-40.33-121.63-6.03,2.98s-.41.23-1.15.65c.29,8.66,1.12,17.3,2.33,25.87Z"/>
          <path class="cls-1" d="M194.98,456.2c4.84-13.27,29.04-82.39,30.71-142.51,0,0-5.57-5.57-8.35-6.5,0,0-59.07,117.69-80.1,149h57.74Z"/>
          <path class="cls-7" d="M221.22,309.67c-.04.26-.08.52-.12.77-.67,4.08-1.5,8.12-2.28,12.18-2.45,12.78-5.37,25.49-8.11,38.21-3.18,14.75-6.65,29.43-10.61,43.99-1.99,7.3-4.1,14.56-6.35,21.78-1.93,6.18-3.99,12.33-5.84,18.54-1.11,3.7-2.21,7.4-3.42,11.07h10.51c4.84-13.27,29.04-82.39,30.71-142.51,0,0-2.17-2.17-4.48-4.03Z"/>
          <path class="cls-21" d="M335.39,456.2c-4.14-12.5-24.4-73.02-33.13-85.9-9.74-14.38-43.16-32.75-43.16-32.75l-6.03-2.98-40.33,121.63h122.64Z"/>
          <path class="cls-23" d="M237.53,439.68c3.35-8.82,6.21-17.83,8.76-26.91,2.47-8.8,4.72-17.69,6.64-26.62,1.92-8.88,4.03-17.72,5.49-26.69,1.14-7.02,1.97-14.21,1.68-21.34-.63-.36-.99-.55-.99-.55l-6.03-2.98-40.33,121.63h17.71c2.6-5.39,4.94-10.92,7.07-16.52Z"/>
          <path class="cls-21" d="M188.89,456.2h37.56c5.52-12.41,28.24-66.07,33.12-119.77,0,0-23.2-26.91-30.16-30.16-6.96-3.25-8.95,2.96-8.95,2.96l2.45,2.15s-14.22,100.15-34.02,144.83Z"/>
          <path class="cls-21" d="M151.6,456.2c-19.82-44.68-34.49-144.83-34.49-144.83l2.92-2.15s-1.99-6.21-8.95-2.96c-6.96,3.25-30.16,30.16-30.16,30.16,4.88,53.71,27.6,107.37,33.12,119.77h37.56Z"/>
        </g>
        <g>
          <path class="cls-19" d="M277.35,99.66c-.64-7.45-1.78-14.86-3.55-22.13-1.71-7.03-3.93-14.07-7.23-20.57-6.11-12.03-16.15-21.67-26.77-30.09-10.64-8.43-23.47-14.03-36.84-17.04-13.31-3-27.14-3.57-40.71-2.11-13.32,1.43-26.7,4.13-39.23,8.76-12.3,4.54-23.73,11.23-33.03,20.26-9.45,9.18-16.5,20.47-21.33,32.48-4.87,12.11-7.54,25.02-8.35,37.96-.8,12.87.47,25.6,3.03,38.23,2.57,12.66,6.08,25.19,11.18,37.14,5.07,11.86,11.75,23.15,20.58,32.8,4.58,5,9.75,9.29,15.12,13.48,1.01.79,2.03,1.58,3.06,2.37,1.84,2.52,3.84,4.93,6.03,7.18,4.55,4.66,9.79,8.29,15.54,11.45,5.51,3.02,11.09,6.18,17.22,7.88,6.45,1.79,13.09,1.65,19.7.92,14.13-1.56,28.11-5.73,40.6-12.28,6.13-3.21,11.9-7.02,17.09-11.51,5.24-4.54,9.83-9.73,13.95-15.24,8.23-11.02,14.67-23.35,20.17-35.82,5.82-13.2,9.66-27.21,11.95-41.37,2.29-14.11,3.05-28.52,1.83-42.77Z"/>
          <g>
            <g>
              <g>
                <path class="cls-16" d="M276.35,159.89c-1.49-10.52-9.35-16.54-17.4-13.46-4.61,1.76-8.28,7.01-10.53,12.31-1.31,3.09-2.19,6.51-2.78,9.93-2.1,6.03-3.39,12.75-3.58,19.25-.14,4.6-.34,13.04,3.1,15.9,3.35,2.79,9.26-.6,12.44-2.67,4.04-2.62,7.5-6.54,10.42-10.98,5.48-8.37,9.91-19.15,8.34-30.28Z"/>
                <path class="cls-3" d="M248.84,204.85c.67-2.26,1.32-4.52,1.93-6.81,2.47-9.1,4.55-18.42,5.85-27.92,1.04-7.64,1.61-15.47,1.21-23.19-4.08,2.12-7.35,6.93-9.41,11.8-1.31,3.09-2.19,6.51-2.78,9.93-2.1,6.03-3.39,12.75-3.58,19.25-.14,4.6-.34,13.04,3.1,15.9,1.04.86,2.32,1.13,3.69,1.03Z"/>
                <path class="cls-4" d="M272.63,159.83c-.7-2.04-2.17-3.34-3.76-3.79-3.67-1.04-7.77,2.14-10.4,5.5-5.86,7.48-7.72,18.99-8.81,29.24-.06.6.62.25.69-.17.31-1.64.63-3.3.97-4.97.05,1.23.18,2.44.31,3.53.26,2.14,1.07,4.09,2.76,4.39,4.08.72,7.43-5.65,9.71-9.26.21-.34-.19-.48-.37-.26-2.07,2.71-4.28,6.31-7.14,7.41-2.31.89-3.12-1.4-3.53-3.96-.34-2.11-.94-4.57-.44-6.71.07-.3,0-.46-.13-.53,1.17-4.93,2.66-9.74,4.87-13.91,1.92-3.62,4.66-6.82,7.91-7.85,2.22-.7,4.52.03,5.63,2.85,1.04,2.63.41,5.89.49,8.78,0,.34.43.06.46-.18.39-3.35,1.93-6.78.78-10.11Z"/>
              </g>
              <g>
                <path class="cls-16" d="M72.48,190.16c2.91,4.45,6.38,8.36,10.42,10.98,3.18,2.07,9.09,5.46,12.44,2.67,3.44-2.86,3.24-11.3,3.1-15.9-.2-6.5-1.49-13.22-3.58-19.25-.59-3.42-1.47-6.84-2.78-9.93-2.25-5.3-5.92-10.55-10.53-12.31-8.06-3.08-15.91,2.94-17.4,13.46-1.58,11.12,2.85,21.9,8.34,30.28Z"/>
                <path class="cls-3" d="M91.65,204.85c-.67-2.26-1.32-4.52-1.93-6.81-2.47-9.1-4.55-18.42-5.85-27.92-1.04-7.64-1.61-15.47-1.21-23.19,4.08,2.12,7.35,6.93,9.41,11.8,1.31,3.09,2.19,6.51,2.78,9.93,2.1,6.03,3.39,12.75,3.58,19.25.14,4.6.34,13.04-3.1,15.9-1.04.86-2.32,1.13-3.69,1.03Z"/>
                <path class="cls-4" d="M67.86,159.83c.7-2.04,2.17-3.34,3.76-3.79,3.67-1.04,7.77,2.14,10.4,5.5,5.86,7.48,7.72,18.99,8.81,29.24.06.6-.62.25-.69-.17-.31-1.64-.63-3.3-.97-4.97-.05,1.23-.18,2.44-.31,3.53-.26,2.14-1.07,4.09-2.76,4.39-4.08.72-7.43-5.65-9.71-9.26-.21-.34.19-.48.37-.26,2.07,2.71,4.28,6.31,7.14,7.41,2.31.89,3.12-1.4,3.53-3.96.34-2.11.94-4.57.44-6.71-.07-.3,0-.46.13-.53-1.17-4.93-2.66-9.74-4.87-13.91-1.92-3.62-4.66-6.82-7.91-7.85-2.22-.7-4.52.03-5.63,2.85-1.04,2.63-.41,5.89-.49,8.78,0,.34-.43.06-.46-.18-.39-3.35-1.93-6.78-.78-10.11Z"/>
              </g>
              <path class="cls-16" d="M255.26,133.8c-.34-11.16-1.44-22.81-6.48-33.13-3.97-8.14-10.12-15.2-17.56-20.95-7.52-5.82-16.28-10.27-25.46-13.53-4.91-1.74-9.96-3.15-15.09-4.23-.27-.08-.53-.16-.8-.22-1.72-.42-3.5-.69-5.24-1.02-1.79-.33-3.58-.57-5.4-.72-.64-.05-1.27-.1-1.91-.14-.22-.02-.44-.05-.66-.07-.05,0-.08,0-.11.02-6.53-.39-13.09-.14-19.55.77-6.69.94-13.42,2.51-19.48,5.32-1.17.54-2.34,1.07-3.52,1.6-7.9,3.11-15.4,7.15-21.96,12.22-7.44,5.75-13.59,12.81-17.56,20.95-5.04,10.32-6.14,21.97-6.48,33.13-.2,6.6,0,13.2.33,19.79.33,6.58.66,13.18,1.26,19.75,1.1,12.12,2.72,24.67,8.01,35.95,4.9,10.46,12.23,19.9,20.82,28.12,6.49,6.2,13.45,12.1,20.96,17.27,7.15,4.92,15.17,9.52,23.94,11.62.84.24,1.69.46,2.56.62,1.9.35,3.83.49,5.75.47,1.93.02,3.86-.11,5.75-.47.87-.16,1.72-.38,2.56-.62,8.77-2.1,16.79-6.69,23.94-11.62,7.51-5.17,14.47-11.06,20.96-17.27,8.6-8.22,15.92-17.66,20.82-28.12,5.29-11.28,6.91-23.83,8.01-35.95.6-6.57.93-13.16,1.26-19.75.33-6.59.53-13.19.33-19.79Z"/>
              <path class="cls-5" d="M150.53,174.76c-.37-.41-.77-.77-1.18-1.12-.05-.04-.11-.09-.16-.13-.43-.32-.87-.62-1.32-.91-1.37-.81-2.89-1.35-4.47-1.66-.3-.06-.32-.37-.18-.57-.9-.32-1.81-.61-2.73-.86-3.22-.87-6.52-1.35-9.83-1.73-5.33-.61-10.69-1.23-16.06-1.25-2.8-.01-5.63.14-8.37.72-2.43.51-4.93,1.38-6.81,3.06-2.06,1.85-2.78,4.56-3.33,7.19-.63,3.05-.79,6.19-.49,9.29.59,6.12,3,12.12,7.07,16.76,2.01,2.3,4.41,4.24,7.1,5.68,2.86,1.53,6,2.43,9.19,2.92,6.41.99,13.2.24,19.14-2.4,5.83-2.59,10.71-7.07,13.35-12.93,2.12-4.72,3.16-10.33,2.17-15.46-.47-2.42-1.44-4.77-3.1-6.62Z"/>
              <path class="cls-5" d="M229.86,168.41c-2.04-.16-4.08-.18-6.12-.1-.02.17-.13.31-.35.3-.83-.06-1.67-.1-2.5-.13-2.39.18-4.77.46-7.14.77-.44.06-.46-.58-.08-.71-3.63.2-7.25.68-10.75,1.57-5.13,1.31-10.78,3.76-13.2,8.81-1.42,2.97-1.53,6.43-1.13,9.65.43,3.44,1.49,6.82,2.91,9.97,1.27,2.81,2.86,5.49,4.92,7.8,2.01,2.27,4.41,4.17,7.05,5.66,5.26,2.97,11.42,4.3,17.44,3.88,6.07-.42,12.05-2.71,16.6-6.79,4.96-4.45,8.21-10.85,9.54-17.34,1.19-5.82.87-12.78-3.2-17.48-3.47-4.01-8.88-5.45-13.98-5.85Z"/>
              <path class="cls-3" d="M180.81,204.56c-1.08-.47-2.06-1.12-3.12-1.62-1.18-.57-2.64-.81-3.93-.95-1.27-.14-2.68-.2-3.94.05-1.42.29-2.78,1.03-4.11,1.56-1.43.57-4.18,1.72-6.01,1.22.82,1.23,1.91,2.28,3.14,3.11,3.36,2.27,7.52,3.02,11.47,2.14,3.24-.72,6.2-2.47,8.31-5-.62-.03-1.24-.26-1.81-.5Z"/>
              <g>
                <g>
                  <path class="cls-13" d="M237.64,163.05c-2.34-3.41-5.32-6.45-8.89-8.58-4.09-2.43-8.77-3.73-13.5-4.08-.39-.03-.78-.04-1.18-.05-2.37.23-4.67.68-6.8,1.33-2.86.87-5.39,2.22-7.49,3.95-2.91,2.71-4.97,6-6.27,9.56-1.28,3.52-1.9,7.22-2.27,10.95,2.62,1.55,5.58,2.67,8.57,3.49,3.94,1.09,8.01,1.72,12.06,2.05,1.77.15,3.54.24,5.31.27,2.3-.21,4.59-.59,6.82-1.12,1.17-.28,2.33-.61,3.48-.98,4.73-2.54,9.13-5.73,13.05-9.39.05-.73.08-1.47.08-2.21-.85-1.81-1.84-3.56-2.97-5.21Z"/>
                  <g>
                    <circle class="cls-24" cx="213.57" cy="166.26" r="14.4" transform="translate(41.4 375.11) rotate(-88.4)"/>
                    <path class="cls-20" d="M224.04,168.57c-1.27,5.78-6.99,9.44-12.78,8.17-5.78-1.27-9.44-6.99-8.17-12.78s6.99-9.44,12.78-8.17c5.78,1.27,9.44,6.99,8.17,12.78Z"/>
                    <path class="cls-13" d="M213.49,160.19c-.5,2.29-2.77,3.74-5.06,3.23s-3.74-2.77-3.23-5.06c.5-2.29,2.77-3.74,5.06-3.23,2.29.5,3.74,2.77,3.23,5.06Z"/>
                    <path class="cls-13" d="M204.72,164.69c-.15.68-.82,1.1-1.49.95-.68-.15-1.1-.82-.95-1.49.15-.68.82-1.1,1.49-.95.68.15,1.1.82.95,1.49Z"/>
                  </g>
                </g>
                <path class="cls-20" d="M247.81,163.93c-.39.63-1.05,1.15-1.69,1.58-.05,0-.1,0-.17.03-.88.36-1.79.64-2.74.4-.76-.2-1.43-.71-2.01-1.22-.62-.55-1.18-1.17-1.72-1.8.46.05.91.07,1.37.04.85-.06,1.69-.21,2.46-.58.35-.17.68-.36.96-.63.25-.25.43-.54.64-.82.02-.03-.02-.04-.04-.02-.44.46-1.25.72-1.85.86-.69.17-1.39.24-2.1.21-.7-.03-1.4-.13-2.07-.33-.21-.06-.41-.14-.61-.22-.3-.36-.61-.72-.93-1.06-.16-.17-.32-.33-.48-.5.18-.06.35-.12.53-.19.56-.22,1.1-.48,1.57-.86.53-.42.89-1,1.35-1.5.07-.08-.03-.12-.09-.06-.84.74-1.78,1.36-2.84,1.75-.34.12-.69.24-1.05.3-.51-.5-1.03-.99-1.56-1.47.95-.19,1.81-.6,2.57-1.21.08-.06.05-.2-.06-.14-.38.22-.79.36-1.22.46-.47.11-.92.23-1.41.26-.2.02-.4.01-.6,0-1.83-1.55-3.81-2.92-5.96-4-1.02-.51-2.08-.95-3.15-1.33-1.26-.53-2.56-.97-3.91-1.29-2.66-.62-5.5-.9-8.31-.74-3.46.01-6.92.63-10.01,2.22-3.15,1.61-5.95,4.11-7.39,7.35-.53.72-1.01,1.47-1.46,2.24-2.62,4.54-4.06,9.96-3.44,15.2.06.51.87.05.91-.29.54-4.6,1.46-9.21,3.61-13.36,2.07-4,5.21-7.45,9.24-9.52,4.84-2.48,10.81-2.67,16.03-1.43,5.15,1.23,9.6,4.3,13.57,7.69,1.59,1.36,2.96,2.94,4.18,4.62.37.4.73.8,1.09,1.21.09.26.24.51.35.74.16.31.33.62.5.93.26.48.5.94.69,1.45.2.53.78.49,1.25.39.58-.12,1.08-.48,1.58-.77,1.01-.6,2-1.18,2.89-1.96.43-.37.81-.76,1.15-1.22.32-.44.49-.87.67-1.39.07-.2-.22-.16-.29-.04Z"/>
                <path class="cls-15" d="M234.85,175.02c-1.72,1.45-3.83,2.34-5.89,3.21-2.42,1.03-4.89,1.88-7.47,2.4-5.48,1.11-10.99.61-16.46-.29-2.98-.49-6.08-1.04-8.93-2.06-.05-.02-.15.07-.09.11,2.3,1.41,4.9,2.08,7.5,2.72,2.93.73,5.98,1.09,8.99,1.34,2.73.22,5.48.07,8.18-.41,2.72-.48,5.5-1.25,8-2.44,1.21-.58,2.43-1.19,3.57-1.9,1.04-.64,2.21-1.47,2.84-2.54.1-.17-.11-.27-.23-.16Z"/>
                <path class="cls-20" d="M188.93,142.79c1.79-1.08,3.67-2,5.59-2.83,4.19-1.81,8.54-3.07,12.96-4.18,4.51-1.13,9.01-2.29,13.64-2.84,4.36-.52,8.89-.6,13.23.17,1.68.3,3.33.79,4.89,1.48.03.01.07.03.1.05-.19-.5-.47-.98-.71-1.41-.52-.96-1.04-1.89-1.78-2.71-1.52-1.67-3.48-2.87-5.53-3.78-4.14-1.82-8.8-2.18-13.27-1.82-4.44.36-8.8,1.37-13.04,2.7-4.29,1.34-8.58,3.15-12.22,5.84-2.03,1.5-3.77,3.31-5,5.53-.42.75-.78,1.53-1.1,2.32-.11.36-.21.73-.31,1.1-.22.84-.41,1.7-.53,2.58.96-.82,2.02-1.54,3.09-2.19Z"/>
              </g>
              <g>
                <g>
                  <path class="cls-13" d="M104.8,163.05c2.34-3.41,5.32-6.45,8.89-8.58,4.09-2.43,8.77-3.73,13.5-4.08.39-.03.78-.04,1.18-.05,2.37.23,4.67.68,6.8,1.33,2.86.87,5.39,2.22,7.49,3.95,2.91,2.71,4.97,6,6.27,9.56,1.28,3.52,1.9,7.22,2.27,10.95-2.62,1.55-5.58,2.67-8.57,3.49-3.94,1.09-8.01,1.72-12.06,2.05-1.77.15-3.54.24-5.31.27-2.3-.21-4.59-.59-6.82-1.12-1.17-.28-2.33-.61-3.48-.98-4.73-2.54-9.13-5.73-13.05-9.39-.05-.73-.08-1.47-.08-2.21.85-1.81,1.84-3.56,2.97-5.21Z"/>
                  <g>
                    <circle class="cls-24" cx="128.87" cy="166.26" r="14.4" transform="translate(-30.04 28.43) rotate(-11.28)"/>
                    <path class="cls-20" d="M139.34,168.57c-1.27,5.78-6.99,9.44-12.78,8.17-5.78-1.27-9.44-6.99-8.17-12.78,1.27-5.78,6.99-9.44,12.77-8.17,5.78,1.27,9.44,6.99,8.17,12.78Z"/>
                    <path class="cls-13" d="M128.8,160.19c-.5,2.29-2.77,3.74-5.06,3.23-2.29-.5-3.74-2.77-3.23-5.06.5-2.29,2.77-3.74,5.06-3.23,2.29.5,3.74,2.77,3.23,5.06Z"/>
                    <path class="cls-13" d="M120.03,164.69c-.15.68-.82,1.1-1.49.95-.68-.15-1.1-.82-.95-1.49s.82-1.1,1.49-.95c.68.15,1.1.82.95,1.49Z"/>
                  </g>
                </g>
                <path class="cls-20" d="M94.63,163.93c.39.63,1.05,1.15,1.69,1.58.05,0,.1,0,.17.03.88.36,1.79.64,2.74.4.76-.2,1.43-.71,2.01-1.22.62-.55,1.18-1.17,1.72-1.8-.46.05-.91.07-1.37.04-.85-.06-1.69-.21-2.46-.58-.35-.17-.68-.36-.96-.63-.25-.25-.43-.54-.64-.82-.02-.03.02-.04.04-.02.44.46,1.25.72,1.85.86.69.17,1.39.24,2.1.21.7-.03,1.4-.13,2.07-.33.21-.06.41-.14.61-.22.3-.36.61-.72.93-1.06.16-.17.32-.33.48-.5-.18-.06-.35-.12-.53-.19-.56-.22-1.1-.48-1.57-.86-.53-.42-.89-1-1.35-1.5-.07-.08.03-.12.09-.06.84.74,1.78,1.36,2.84,1.75.34.12.69.24,1.05.3.51-.5,1.03-.99,1.56-1.47-.95-.19-1.81-.6-2.57-1.21-.08-.06-.05-.2.06-.14.38.22.79.36,1.22.46.47.11.92.23,1.41.26.2.02.4.01.6,0,1.83-1.55,3.81-2.92,5.96-4,1.02-.51,2.08-.95,3.15-1.33,1.26-.53,2.56-.97,3.91-1.29,2.66-.62,5.5-.9,8.31-.74,3.46.01,6.92.63,10.01,2.22,3.15,1.61,5.95,4.11,7.39,7.35.53.72,1.01,1.47,1.46,2.24,2.62,4.54,4.06,9.96,3.44,15.2-.06.51-.87.05-.91-.29-.54-4.6-1.46-9.21-3.61-13.36-2.07-4-5.21-7.45-9.24-9.52-4.84-2.48-10.81-2.67-16.03-1.43-5.15,1.23-9.6,4.3-13.57,7.69-1.6,1.36-2.96,2.94-4.18,4.62-.37.4-.73.8-1.09,1.21-.09.26-.24.51-.35.74-.16.31-.33.62-.5.93-.26.48-.5.94-.69,1.45-.2.53-.78.49-1.25.39-.58-.12-1.08-.48-1.58-.77-1.01-.6-2-1.18-2.89-1.96-.43-.37-.81-.76-1.15-1.22-.32-.44-.49-.87-.67-1.39-.07-.2.22-.16.29-.04Z"/>
                <path class="cls-15" d="M107.59,175.02c1.72,1.45,3.83,2.34,5.89,3.21,2.42,1.03,4.89,1.88,7.47,2.4,5.48,1.11,10.99.61,16.46-.29,2.98-.49,6.08-1.04,8.93-2.06.05-.02.15.07.09.11-2.3,1.41-4.9,2.08-7.5,2.72-2.93.73-5.98,1.09-8.99,1.34-2.73.22-5.48.07-8.18-.41-2.72-.48-5.5-1.25-8-2.44-1.21-.58-2.43-1.19-3.57-1.9-1.04-.64-2.21-1.47-2.84-2.54-.1-.17.11-.27.23-.16Z"/>
                <path class="cls-20" d="M153.51,142.79c-1.79-1.08-3.67-2-5.59-2.83-4.19-1.81-8.54-3.07-12.96-4.18-4.51-1.13-9.01-2.29-13.64-2.84-4.36-.52-8.89-.6-13.23.17-1.68.3-3.33.79-4.89,1.48-.03.01-.07.03-.1.05.19-.5.47-.98.71-1.41.52-.96,1.04-1.89,1.78-2.71,1.52-1.67,3.48-2.87,5.53-3.78,4.14-1.82,8.8-2.18,13.27-1.82,4.44.36,8.8,1.37,13.04,2.7,4.29,1.34,8.58,3.15,12.22,5.84,2.03,1.5,3.77,3.31,5,5.53.42.75.78,1.53,1.1,2.32.11.36.21.73.31,1.1.22.84.41,1.7.53,2.58-.96-.82-2.02-1.54-3.09-2.19Z"/>
              </g>
              <g>
                <path class="cls-11" d="M194.71,224.78c-4.75-.04-9.34-1.26-13.97-2.18-2.07-.41-4.46-1.07-6.55-.45-.84.25-1.56.74-2.13,1.4-.23.26-.42.55-.61.84-.19-.29-.39-.57-.61-.84-.57-.66-1.29-1.15-2.13-1.4-2.09-.62-4.48.04-6.55.45-4.63.92-9.22,2.14-13.97,2.18-.42,0-.97.47-.72.91,1.18,2.08,2.16,4.28,3.54,6.25,1.37,1.95,3.08,3.68,5.12,4.93,2.1,1.29,4.47,2.11,6.89,2.59,2.35.46,4.78.74,7.17.78.42,0,.84,0,1.26,0,.42.01.84.02,1.26,0,2.4-.04,4.82-.32,7.17-.78,2.41-.47,4.78-1.3,6.89-2.59,2.04-1.25,3.74-2.98,5.12-4.93,1.38-1.96,2.36-4.17,3.54-6.25.25-.45-.3-.91-.72-.91Z"/>
                <path class="cls-18" d="M197.41,223.5c-.37-.27-.85-.21-1.25-.07-.28.1-.53.27-.78.43-.23.15-.46.3-.69.46-.48.34-1,.82-1.17,1.41-.58.28-1.18.52-1.77.77-1.59.65-3.22,1.21-4.88,1.68-3.25.93-6.6,1.58-9.96,1.97-3.42.39-6.88.57-10.32.36-3.43-.21-6.88-.66-10.14-1.77-1.86-.63-3.67-1.38-5.26-2.54-.72-.53-1.38-1.09-2.19-1.49-.81-.41-1.74-.56-2.64-.67-.53-.06-.86.67-.56.9,0,0,0,0,0,0,0,0,.01,0,.02,0,.03.02.06.03.1.04.66.31,1.37.43,2.03.75.81.38,1.52.92,2.34,1.29.75.33,1.53.54,2.3.8.93.31,1.85.67,2.78.98,3.25,1.09,6.62,1.88,10.03,2.25,6.88.74,13.88.2,20.56-1.59,1.91-.51,3.78-1.13,5.6-1.88.96-.39,1.89-.85,2.83-1.26.29-.13.58-.25.87-.38.48.09,1-.16,1.4-.4.47-.27,1.01-.69,1.08-1.28.03-.31-.11-.59-.36-.77Z"/>
              </g>
              <path class="cls-4" d="M166.37,209.95c-.76-.84-1.97-1.24-2.94-1.78-1.04-.58-2.07-1.22-2.94-2.05-.85-.82-1.68-1.87-1.79-3.08-.1-1.04.3-2.05.63-3.02,1.77-5.23,2.91-10.8,3.46-16.29.15-1.56.26-3.12.31-4.69.06-1.59-.02-3.15-.1-4.73,0-.16-.24-.07-.25.05-.16,2.93-.48,5.88-.87,8.79-.39,2.95-.89,5.9-1.54,8.81-.6,2.74-1.31,5.47-2.23,8.12-.35,1-.74,2.06-.69,3.13.05,1.17.62,2.19,1.37,3.06.9,1.05,2.03,1.9,3.26,2.54,1.18.62,2.54,1.4,3.86,1.61.19.03.68-.23.46-.48Z"/>
              <path class="cls-4" d="M183.33,202.15c-.32-1.35-.97-2.68-1.02-4.07,0-.17-.26-.1-.28.03-.54,2.39.95,4.72.18,7.08-.63,1.95-2.53,3.07-4.04,4.29-.24.2-.15.63.2.44,1.9-1.01,3.93-2.19,4.8-4.26.48-1.13.44-2.33.16-3.51Z"/>
            </g>
            <path class="cls-14" d="M256.33,145.86s-4.12,8.96-5.08,9.93c-.66.66-2.65-.02-3.87-.53-1.19-4.59-5.2-14.17-18.16-16.17-15.11-2.34-34.86-2.91-43.57,11.14,0,0-3,2.11-4.04,9.63-2.05-2.4-5.69-4.07-10.02-4.12-.11,0-.23,0-.34,0-.11,0-.23,0-.34,0-4.33.05-7.97,1.72-10.02,4.12-1.04-7.52-4.04-9.63-4.04-9.63-8.71-14.04-28.47-13.48-43.57-11.14-12.96,2.01-16.97,11.58-18.16,16.17-1.21.51-3.21,1.19-3.87.53-.97-.97-3.39-8.96-3.39-8.96,0,0-3.87,5.81,0,11.14,0,0,4.82,11.69,6.78,11.58.66,7.01,2.7,12.84,6.54,17.95,5.81,7.75,20.82,13.56,36.8,10.65,15.98-2.9,22.76-17.43,23.24-30.99.03-.73.03-1.42.03-2.09,1.09-1.12,2.82-2.71,4.81-3.89,1.27-.68,2.74-1.25,4.36-1.52.28-.05.56-.07.85-.08.28,0,.57.03.85.08,1.62.27,3.08.84,4.36,1.52,2,1.18,3.72,2.77,4.81,3.89,0,.67,0,1.36.03,2.09.48,13.56,7.26,28.08,23.24,30.99,15.98,2.9,30.99-2.9,36.8-10.65,3.84-5.12,5.87-10.94,6.54-17.95,1.95.11,7.75-8.92,7.75-8.92,4.12-8.47.73-14.77.73-14.77ZM157.56,167.4c-.97,10.65-5.33,23.72-18.88,26.63-13.56,2.9-26.63.48-34.38-9.68-7.75-10.17-5.81-23.24-5.81-23.24,0,0,.97-14.52,13.07-17.43,12.1-2.9,25.18-2.42,33.41,1.45,8.23,3.87,13.56,11.62,12.59,22.27ZM238.17,184.35c-7.75,10.17-20.82,12.59-34.37,9.68-13.56-2.9-17.91-15.98-18.88-26.63-.97-10.65,4.36-18.4,12.59-22.27,8.23-3.87,21.3-4.36,33.41-1.45,12.1,2.91,13.07,17.43,13.07,17.43,0,0,1.94,13.07-5.81,23.24Z"/>
            <g>
              <g>
                <path class="cls-13" d="M109.64,182.19c-.04-.26-.14-.49-.25-.72-.11-.22-.24-.43-.41-.61-.17-.18-.36-.37-.58-.49-.43-.26-.91-.35-1.41-.27-.05,0-.09.03-.14.04-.39-.07-.79.13-1.04.43-.15.17-.26.36-.34.57-.07.17-.09.37-.11.55-.03.36.01.75.12,1.1.25.79.95,1.52,1.8,1.66.04,0,.08,0,.12,0,.31.11.64.13.99-.02.19-.08.34-.21.47-.36.36-.26.65-.65.75-1.07.06-.28.07-.52.03-.81Z"/>
                <path class="cls-13" d="M111.56,184.21c-.42,0-.88.3-1.01.71-.12.38.1.73.51.73s.88-.3,1.01-.71c.12-.38-.1-.73-.51-.73Z"/>
              </g>
              <g>
                <path class="cls-13" d="M235.19,183c.1.43.39.82.75,1.07.13.15.28.28.47.36.34.15.68.13.99.02.04,0,.08,0,.12,0,.85-.14,1.54-.87,1.8-1.66.11-.35.15-.73.12-1.1-.01-.18-.04-.38-.11-.55-.08-.21-.19-.4-.34-.57-.25-.3-.65-.49-1.04-.43-.05-.01-.09-.03-.14-.04-.5-.08-.98.01-1.41.27-.22.13-.41.31-.58.49-.17.18-.31.39-.41.61-.11.23-.21.47-.25.72-.04.29-.03.53.03.81Z"/>
                <path class="cls-13" d="M233.23,184.21c.42,0,.88.3,1.01.71.12.38-.1.73-.51.73s-.88-.3-1.01-.71c-.12-.38.1-.73.51-.73Z"/>
              </g>
            </g>
          </g>
          <g>
            <path class="cls-19" d="M241.32,96.32c-.38-4.25-1.37-8.44-2.69-12.49-2.52-7.74-6.25-15.12-11.68-21.24-5.49-6.19-12.39-10.87-19.81-14.45-7.52-3.64-15.53-6.62-23.75-8.17-7.93-1.5-16.04-1.75-24.06-.86-7.98.89-15.82,2.94-23.25,5.98-7.52,3.07-14.63,7.17-21.07,12.12-6.5,5.01-12.31,10.87-17.23,17.44-4.59,6.13-8.32,12.84-10.75,20.12-2.37,7.08-3.95,15.52-1.05,22.68.67,1.64,1.56,3.16,2.68,4.53.51.62,1.52.04,1.73-.57.44-1.28.68-2.64.83-3.98.17-1.42.13-2.88.42-4.28.2-.95-1.09-.84-1.42-.2.42-1.14.94-2.23,1.49-3.24,2.39-4.44,5.64-8.43,9.05-12.12,2.81-3.04,5.8-5.97,9.04-8.55,5.33-4.25,11.28-7.76,17.44-10.66,6.52-3.07,13.35-5.43,20.33-7.21,6.76-1.72,13.67-2.96,20.64-3.42,13.53-.9,27.56.96,39.67,7.32,12.12,6.37,21.24,16.84,28.02,28.56.86,1.49,1.7,3,2.49,4.53.39.76,1.54-.08,1.73-.57,1.4-3.58,1.53-7.49,1.19-11.28ZM90.16,113.13c-.29,1.4-.55,2.8-.78,4.22-.04.23-.07.45-.1.68-.05-1.64.31-3.31.89-4.91,0,0,0,0,0,0Z"/>
            <path class="cls-2" d="M258.81,182.82c2.44-3.31,5.15-6.22,6.93-9.98,4.12-8.67,3.03-18.38-.9-26.91-1.81-3.92-4.22-7.53-6.05-11.44-2.07-4.43-2.82-9.06-2.57-13.94.52-10.13,5.08-19.56,5.13-29.73.04-9.36-2.85-18.41-7.67-26.38-4.68-7.73-10.98-14.87-18.61-19.79-3.86-2.49-8.13-4.33-12.7-4.94-1.97-.27-3.97-.34-5.93.09-1.17.26-2.32.59-3.47.91-.05-.11-.1-.21-.15-.32-.46-.92-.96-1.78-1.57-2.6-1.26-1.69-2.76-3.21-4.4-4.54-3.36-2.74-7.22-4.82-11.2-6.52-9.15-3.92-19.16-6.11-29.08-6.68-9.78-.57-19.56.67-29.01,3.21-8.97,2.4-17.61,5.96-25.7,10.52-8.08,4.55-15.51,10.09-22.31,16.39-6.55,6.07-12.59,12.75-17.56,20.18-4.93,7.38-8.76,15.55-10.86,24.19-1.2,4.96-1.7,10.07-1.1,15.15.57,4.83,2.05,9.79,4.88,13.79,2.53,3.58,5.91,6.44,8.83,9.67,2.31,2.55,4.46,5.26,6.37,8.12,1.96,2.92,3.69,6.01,4.91,9.32-.37,3.05-1.52,5.98-2.94,8.72-2.02,3.88-4.44,7.54-6.54,11.38-2.07,3.8-3.95,7.73-5.38,11.82-1.42,4.06-2.41,8.3-2.74,12.6-.29,3.88-.16,7.91,1.05,11.63,2.11,6.51,7.22,11.18,12.89,14.7,6.27,3.9,14.31,6.46,18.51,12.94,2.12,3.26,2.39,6.9,1.47,10.61-.84,3.39-2.25,6.62-2.78,10.09-.49,3.19-.19,6.98,1.76,9.67,1.2,1.66,2.96,2.66,4.78,3.53-.17-.2-.33-.41-.47-.63-1.09-1.66-1.47-3.71-1.19-5.66.34-2.3,1.39-4.47,2.59-6.43.5-.82,1.05-1.61,1.63-2.39.49-.92.99-1.82,1.45-2.69,1.71-3.25,3.35-6.4,3.47-10.15.16-5.15-1.9-9.96-4.8-14.11-3.03-4.34-6.87-8.04-10.59-11.78-3.61-3.63-7.52-7.37-9.95-11.93-5.79-10.85,3.44-22.11,9.29-30.76,3.3-4.89,6.44-10.01,7.98-15.76,1.53-5.71,1.44-11.64.56-17.45-1.77-11.64-6.58-23.05-5.27-35,2.27-20.72,16.85-38.86,34.96-48.38,9.14-4.81,19.38-7.62,29.73-7.73,10.55-.11,24.08,2.88,28.16,14.02.93,2.53,1.44,5.21,2.19,7.79.04.15.16.18.29.15-.08.25-.14.51-.15.78-.03.6.88.3.98-.1.63-2.41,4.72-3.08,6.78-3.24,3.94-.31,7.84,1.52,10.91,3.84,2.99,2.26,5.42,5.25,6.81,8.74,1.24,3.11,1.73,6.47,1.88,9.8.32,7.13-.67,14.28.38,21.38.57,3.81,1.72,7.55,3.71,10.87,2.01,3.34,4.92,6.09,7.64,8.83,2.74,2.76,5.49,5.54,7.73,8.73,2.44,3.48,4.2,7.42,5.1,11.57.91,4.17.89,8.48.15,12.68-.76,4.29-2.05,8.46-2.65,12.78-.57,4.14-.58,8.42.6,12.46,1.14,3.92,3.45,7.43,5.27,11.06,1.66,3.32,3.1,6.8,3.51,10.52.47,4.19-.6,8.25-2,12.17-2.11,5.9-5.02,11.52-6.87,17.5-1.84,1.93-3.49,4.03-4.39,6.55-1.21,3.4-.77,7.59,1.03,10.72.45.78,1.01,1.43,1.66,1.97-.18-.9-.32-1.82-.4-2.74-.36-3.91.32-7.88,2.19-11.35.19-.35.39-.68.59-1.02.25-1.25.56-2.48.93-3.7.47-.48.94-.94,1.41-1.39,5.35-5.15,11.86-10.36,13.92-17.83,1.2-4.34.73-8.95-.07-13.31-.46-2.49-1.07-5-1.96-7.38-.86-2.28-2.23-4.32-3.22-6.54-.86-1.93-1.24-3.85-.61-5.91.57-1.85,1.65-3.49,2.79-5.03Z"/>
            <path class="cls-12" d="M198.41,58.37c-1.13-4.23-3.91-7.65-7.2-10.43-3.36-2.84-7.23-5.14-11.23-6.98-9.38-4.33-19.94-5.06-30.06-3.52-9.41,1.43-18.67,4.58-26.78,9.59-7.41,4.58-13.84,10.67-18.96,17.71-5.12,7.02-9.01,15.06-11.29,23.45-2.98,10.98-2.22,22.19.36,33.16,1.22,5.19,2.97,10.23,3.79,15.52.73,4.72.79,9.53-.08,14.24-.95,5.14-3.01,10.02-5.57,14.55-2.29,4.05-4.95,7.87-7.29,11.9-4.44,7.65-8.62,17.45-4.16,26.02,2.19,4.2,5.76,7.13,9.48,9.91,3.1,2.32,6.15,4.81,8.21,8.14,1.11,1.79,2.01,3.76,2.78,5.72.13.34.68.04.61-.27-.86-3.91-2.75-7.22-5.61-10.03-2.91-2.87-6.45-4.98-9.45-7.74-3.53-3.25-6.25-7.41-6.57-12.3-.3-4.59.93-9.07,2.81-13.22,3.94-8.72,10.33-16.08,13.83-25.04,1.66-4.25,2.67-8.75,2.86-13.32.19-4.61-.44-9.19-1.44-13.68-1.21-5.43-2.92-10.7-3.78-16.2-.85-5.42-1.14-10.92-.66-16.4.82-9.38,3.99-18.66,8.61-26.84,4.14-7.35,9.61-14.01,16.18-19.32,6.87-5.56,14.76-9.43,23.24-11.83,9.73-2.74,20.19-3.75,30.1-1.37,4.6,1.11,8.93,2.99,13.03,5.32,3.83,2.17,7.49,4.81,10.3,8.23,1.32,1.6,2.45,3.42,3.24,5.33.15.37.77.04.68-.3Z"/>
            <path class="cls-12" d="M185.58,35.34c-5.73-3.48-12.17-5.55-18.79-6.46-6.9-.94-13.92-.73-20.8.25-6.77.96-13.41,2.68-19.82,5.05-6.13,2.26-12.06,5.14-17.53,8.73-5.31,3.49-10.18,7.68-14.27,12.54-4.13,4.91-7.44,10.47-9.79,16.44-2.77,7.06-4.27,14.63-4.68,22.19-.41,7.67.29,15.48,2.46,22.86,2.26,7.66,6.13,14.77,8.03,22.54.84,3.45,1.31,7.02.99,10.57-.3,3.27-1.34,6.44-2.83,9.36-.81,1.59-1.73,3.14-2.62,4.7-.28.49.41.5.64.19,4.06-5.28,6.32-11.84,5.98-18.51-.39-7.73-3.53-14.88-6.33-21.98-1.42-3.61-2.71-7.27-3.56-11.06-.84-3.73-1.34-7.53-1.53-11.34-.38-7.68.42-15.45,2.43-22.88,1.75-6.46,4.48-12.6,8.25-18.13,3.54-5.17,7.94-9.73,12.88-13.58,5.08-3.95,10.7-7.16,16.59-9.75,6.11-2.68,12.51-4.7,19.04-6.11,6.8-1.46,13.78-2.21,20.74-1.93,6.77.27,13.6,1.52,19.86,4.15,1.56.66,3.08,1.4,4.56,2.23.05.03.15-.06.09-.09Z"/>
            <path class="cls-12" d="M106.1,239.79c-.27-2.95-1.28-5.72-2.88-8.21-2.83-4.42-7.27-7.41-11.65-10.13-4.73-2.94-9.61-5.77-13.21-10.11-3.56-4.28-5.63-9.66-5.71-15.25-.08-6.45,2.27-12.94,5.65-18.36.07-.12-.1-.13-.16-.05-3.48,4.82-5.99,10.2-6.6,16.16-.56,5.42.59,10.87,3.45,15.53,3.05,4.95,7.67,8.4,12.51,11.46,4.37,2.76,9.04,5.36,12.44,9.33,4.39,5.11,6.07,12.4,4.02,18.87-.11.35.41.31.53.08,1.49-2.83,1.89-6.16,1.6-9.32Z"/>
            <path class="cls-12" d="M254.19,161.47c1.05-4.99.22-10.16-1.87-14.78-2.07-4.57-5.32-8.45-8.66-12.14-3.54-3.92-7.25-7.72-10.14-12.17-2.71-4.16-4.61-8.79-5.21-13.75-.66-5.47.46-10.88,1.26-16.28.85-5.73,1.56-11.66.46-17.41-.93-4.89-3.48-9.27-7.29-12.48-3.58-3.02-8.36-4.93-13.07-4.06-1.13.21-2.22.57-3.26,1.04-.05.02-.04.09.02.07,9.75-3.5,19.69,4.95,22.01,14.09,1.42,5.61.81,11.61,0,17.27-.76,5.39-2.03,10.81-1.73,16.28.27,4.89,1.73,9.57,4.12,13.83,2.55,4.56,6.02,8.44,9.52,12.28,3.35,3.67,6.79,7.36,9.29,11.68,2.5,4.32,4.06,9.44,3.6,14.47-.45,4.88-2.58,9.45-4.07,14.07-1.42,4.42-2.57,9.17-.98,13.71.41,1.16.96,2.22,1.68,3.22.17.24.64-.09.5-.35-1.25-2.27-2.09-4.7-2.16-7.32-.06-2.44.44-4.85,1.14-7.18,1.44-4.77,3.81-9.2,4.84-14.11Z"/>
            <path class="cls-12" d="M262.15,144.38c-1.14-2.42-2.49-4.73-4.11-6.86-1.64-2.16-3.43-4.21-5.06-6.37-3.12-4.14-5.23-8.79-6.07-13.92-.8-4.92-.5-9.93.05-14.86,1.08-9.86,3.31-19.94.99-29.8-1.06-4.49-2.86-8.92-5.17-12.91-2.25-3.89-5.19-7.58-9.11-9.91-3.36-1.99-7.21-3.25-11.07-3.79-3.74-.53-8.13-.42-11.39,1.75-.74.49-1.41,1.08-2,1.75-.12.13.06.21.16.11,2.92-2.76,7.09-3.4,10.96-3.12,3.95.29,7.93,1.46,11.44,3.28,3.9,2.02,6.88,5.24,9.22,8.92,2.45,3.85,4.22,8.15,5.47,12.53,2.74,9.6.82,19.61-.37,29.29-.59,4.74-1.01,9.54-.59,14.31.42,4.84,1.81,9.53,4.34,13.69,2.77,4.55,6.94,8.04,9.68,12.62,2.72,4.55,4.57,9.56,5.22,14.83.17,1.38.25,2.76.25,4.15,0,.25.39.11.4-.08.34-5.43-.96-10.72-3.26-15.62Z"/>
          </g>
        </g>
      </g>
    </g>
  </g>
</svg>