<?xml version="1.0" encoding="UTF-8"?>
<svg id="Layer_1" xmlns="http://www.w3.org/2000/svg" xmlns:xlink="http://www.w3.org/1999/xlink" version="1.1" viewBox="0 0 1125 525">
  <!-- Generator: Adobe Illustrator 29.0.1, SVG Export Plug-In . SVG Version: 2.1.0 Build 192)  -->
  <defs>
    <style>
      .st0 {
        fill: #fdfdfc;
        font-family: MonaSansExpanded-Medium, 'Mona Sans Expanded';
        font-size: 117px;
        font-weight: 500;
      }

      .st1 {
        fill: url(#radial-gradient);
      }
    </style>
    <radialGradient id="radial-gradient" cx="724.6" cy="242.8" fx="724.6" fy="242.8" r="255.5" gradientUnits="userSpaceOnUse">
      <stop offset="0" stop-color="#180041"/>
      <stop offset="1" stop-color="#6231ff" stop-opacity=".6"/>
    </radialGradient>
  </defs>
  <path d="M346.5,146.2l-209.8,194.1-84.6.2c-14.5-3.6-16.2-15.1-16.9-28.1-1.1-22.4,1.9-45.7,1.6-68.3,0-3-1.1-5.5-.8-9,.7-7.1,6.7-14.3,13.5-16.5s24.4-.2,32.7-.4c18.6-.4,38.3-3.5,56.9-.7,21.7,3.3,26.2,30.4,7.2,40.7-.7.4-3.7,1.9-4.1,1.9h-65.6v37.5h105.7v-94.1l41.2-53.1,2.3-.5v66c4-1.7,7.9-5.6,11.3-8.6,22.1-19.8,43.1-41,64.9-61.1h44.6Z"/>
  <path d="M312,268.5v-74.6l36-31.9v163.9c0,1.8-6.1,8.9-7.9,10.1-16.5,11.5-28.7-8.9-37-20-16.2-21.6-30.2-45-47-66.2v-4.5l23.2-21,32.6,44.2h0Z"/>
  <path d="M185.2,146.2l-32.3,42.4-2.6.4c-30.7-2.2-65.1,2.7-95.3,0-17-1.5-25.3-22.8-13.8-35.6,1.5-1.6,9-7.1,10.9-7.1h133.1Z"/>
  <path d="M225.8,325.1c-.3,1.3-4.9,8.3-6,9.5-14.8,15.5-43-.6-36.7-21.4l42.7-38.7v50.6Z"/>
  <rect class="st1" x="376.5" y="146.2" width="696.3" height="193.2" rx="21.9" ry="21.9"/>
  <text class="st0" transform="translate(419.5 281.9)"><tspan x="0" y="0">EVOLKUN</tspan></text>
</svg>